<svg xmlns="http://www.w3.org/2000/svg" xmlns:xlink="http://www.w3.org/1999/xlink" viewBox="0 0 434.22 229.37"><defs><style>.a{fill:#fff;}.b{clip-path:url(#a);}</style><clipPath id="a"><path class="a" d="M267,192.09c-.13,3,1.18,6.8-1.4,8.53-2.26,1.52-5,.22-6.79-1.79-1,3.71-2.24,7.37-3.55,11-.1.26-.5-.48-1-1.21-.71-1-1.66-2-2.39-.57-1.11,2.15-1.39,5.24-1.36,7.87,4.3-.71,8.53-1.57,12.7-2.55,2.95-4.57,6.38-9.65,7.77-14.84.6-2.24,1.11-4.51,1.59-6.8a12.42,12.42,0,0,1-5.53.4m84.72-39.83c-15.27,6.79-30.6,14.48-47.4,15.68-.64,4.28,2.85,9.16,1.61,13.87s-6.32,6.38-10.84,5.68c-.12,3,1.18,6.81-1.39,8.52-2.25,1.53-5,.23-6.81-1.79-1,3.71-2.21,7.38-3.54,11-.1.27-.51-.47-1-1.21-.71-1-1.66-2-2.39-.56a14,14,0,0,0-1.41,5.68c35.38-11.38,64.19-31.88,81.41-56.06,2.81-3.94,5.47-7.84,8-11.7-4.34,5-10.75,8.47-16.23,10.93m-182-47.43h7.82c.76,0,1.75.24,2.1-.13,2.4-2.47,2.09-6.78.7-8.32-4.57-5.09-11.49-9.73-10.62-17.29-8.32,8,1.81,16.69,0,25.74M136.07,19C107.69,36.61,98,76.38,87.75,102.61s-22,54.18-33.94,68.11C38,189.2,21.28,205,0,211.82c0,0,13.41,19.43,21.78,17.4C54.26,214.36,72.59,167,72.59,167c55,42.08,112.47,55.35,162.49,50.84,2.94-4.55,6.32-9.6,7.71-14.74a117.4,117.4,0,0,0,3.59-20.86c-1.59-5.87,1.06-12.28-1-18-.24-.65-2.37-.49-2.91,1-1.92,5.48-6.67,11.55-12.19,9.52a42.68,42.68,0,0,1-11.16-6.49c-3.38-2.61-4.68-7.41-9.24-8.38-.51-.09-.87.45-1.3,1a1.93,1.93,0,0,1-2,1c-.17,8.82-4.7,18.84-13.52,20.75-5.82,1.27-9.78-6.16-10.55-11.72-.66-4.73-6.27-7.13-8.55-11-6.31,1.21-12.63.73-17.29-4-3.43-3.48-2.31-9.53-3.81-14.45-3.77-12.28-3.06-25.73-3.33-38.82l.05-.13a17.76,17.76,0,0,0-2-.08c-.54,0-.86,0-1-.12-5.93-8.16.72-16.22,6.73-21.57,9-8,20.92-13.86,33-12.18,5.55.76,11.1,5.94,16.58,2.32,15.25-10.11,28.19-22.2,45.26-25.16,24.55-4.24,52-7.94,74.74,5.46.81.48,1.16,1.42,2.23,1.11-.59.31-1.42.38-1.89.8,6.64,1.65,13.21,3.69,19.91,5.53,17,4.72,34.38,1.17,51.25,6.33a65.59,65.59,0,0,1,12.08,4.82C417,46.05,424.86,25.18,434.22,7.89c-48.42,18.44-91.4,18.62-143.93,6.69-27-6.11-56.1-14.58-86-14.58-22.49,0-45.42,4.79-68.2,19"/></clipPath></defs><title>logo</title><path class="a" d="M267,192.09c-.13,3,1.18,6.8-1.4,8.53-2.26,1.52-5,.22-6.79-1.79-1,3.71-2.24,7.37-3.55,11-.1.26-.5-.48-1-1.21-.71-1-1.66-2-2.39-.57-1.11,2.15-1.39,5.24-1.36,7.87,4.3-.71,8.53-1.57,12.7-2.55,2.95-4.57,6.38-9.65,7.77-14.84.6-2.24,1.11-4.51,1.59-6.8a12.42,12.42,0,0,1-5.53.4m84.72-39.83c-15.27,6.79-30.6,14.48-47.4,15.68-.64,4.28,2.85,9.16,1.61,13.87s-6.32,6.38-10.84,5.68c-.12,3,1.18,6.81-1.39,8.52-2.25,1.53-5,.23-6.81-1.79-1,3.71-2.21,7.38-3.54,11-.1.27-.51-.47-1-1.21-.71-1-1.66-2-2.39-.56a14,14,0,0,0-1.41,5.68c35.38-11.38,64.19-31.88,81.41-56.06,2.81-3.94,5.47-7.84,8-11.7-4.34,5-10.75,8.47-16.23,10.93m-182-47.43h7.82c.76,0,1.75.24,2.1-.13,2.4-2.47,2.09-6.78.7-8.32-4.57-5.09-11.49-9.73-10.62-17.29-8.32,8,1.81,16.69,0,25.74M136.07,19C107.69,36.61,98,76.38,87.75,102.61s-22,54.18-33.94,68.11C38,189.2,21.28,205,0,211.82c0,0,13.41,19.43,21.78,17.4C54.26,214.36,72.59,167,72.59,167c55,42.08,112.47,55.35,162.49,50.84,2.94-4.55,6.32-9.6,7.71-14.74a117.4,117.4,0,0,0,3.59-20.86c-1.59-5.87,1.06-12.28-1-18-.24-.65-2.37-.49-2.91,1-1.92,5.48-6.67,11.55-12.19,9.52a42.68,42.68,0,0,1-11.16-6.49c-3.38-2.61-4.68-7.41-9.24-8.38-.51-.09-.87.45-1.3,1a1.93,1.93,0,0,1-2,1c-.17,8.82-4.7,18.84-13.52,20.75-5.82,1.27-9.78-6.16-10.55-11.72-.66-4.73-6.27-7.13-8.55-11-6.31,1.21-12.63.73-17.29-4-3.43-3.48-2.31-9.53-3.81-14.45-3.77-12.28-3.06-25.73-3.33-38.82l.05-.13a17.76,17.76,0,0,0-2-.08c-.54,0-.86,0-1-.12-5.93-8.16.72-16.22,6.73-21.57,9-8,20.92-13.86,33-12.18,5.55.76,11.1,5.94,16.58,2.32,15.25-10.11,28.19-22.2,45.26-25.16,24.55-4.24,52-7.94,74.74,5.46.81.48,1.16,1.42,2.23,1.11-.59.31-1.42.38-1.89.8,6.64,1.65,13.21,3.69,19.91,5.53,17,4.72,34.38,1.17,51.25,6.33a65.59,65.59,0,0,1,12.08,4.82C417,46.05,424.86,25.18,434.22,7.89c-48.42,18.44-91.4,18.62-143.93,6.69-27-6.11-56.1-14.58-86-14.58-22.49,0-45.42,4.79-68.2,19"/><g class="b"><rect class="a" x="-24.04" y="-57.42" width="482.31" height="346.09" transform="translate(-24.04 67.14) rotate(-16.67)"/></g></svg>